<svg width="759" height="169" viewBox="0 0 759 169" fill="none" xmlns="http://www.w3.org/2000/svg">
<path d="M242.81 41.88L129.76 0.73999C128.39 0.23999 126.95 0 125.5 0C124.05 0 122.62 0.23999 121.24 0.73999L8.19 41.88C3.27 43.67 0 48.35 0 53.58V114.93C0 120.16 3.27 124.84 8.19 126.63L121.24 167.77C122.62 168.27 124.06 168.52 125.5 168.52C126.94 168.52 128.39 168.27 129.76 167.77L242.81 126.63C247.73 124.84 251 120.16 251 114.93V53.58C251 48.35 247.73 43.67 242.81 41.88ZM137.85 131.94C133.78 132.29 129.66 132.46 125.5 132.46C85.07 132.46 48.5 115.94 22.18 89.26C19.44 86.49 19.44 82.03 22.18 79.26C48.5 52.58 85.07 36.05 125.5 36.05C130.35 36.05 135.14 36.29 139.86 36.75C125.23 47.82 115.78 65.38 115.78 85.14C115.78 104.9 124.37 120.81 137.85 131.94ZM176.42 115.53C176.42 98.74 162.81 85.14 146.03 85.14C162.81 85.14 176.42 71.53 176.42 54.74C176.42 71.53 190.03 85.14 206.82 85.14C190.03 85.14 176.42 98.74 176.42 115.53Z" fill="#1C1C1C"/>
<path d="M419.51 54.14H378.25C376.09 54.14 374.33 55.9 374.33 58.07V110.45C374.33 112.62 376.09 114.38 378.25 114.38H389.27C391.43 114.38 393.19 112.62 393.19 110.45V98.22C393.19 96.06 394.95 94.3 397.12 94.3H419.51C441.04 94.3 447.6 85.31 447.6 74.54V73.74C447.6 62.72 441.12 54.14 419.51 54.14ZM427.93 74.46C427.93 78.51 425.09 80.78 419.18 80.78H397.12C394.95 80.78 393.19 79.02 393.19 76.85V71.75C393.19 69.58 394.95 67.83 397.12 67.83H419.18C425.17 67.83 427.93 70.17 427.93 74.22V74.46Z" fill="#1C1C1C"/>
<path d="M521.79 108.59L493.77 56.21C493.08 54.94 491.75 54.14 490.3 54.14H470.62C469.14 54.14 467.78 54.98 467.11 56.3L440.64 108.68C439.32 111.29 441.22 114.37 444.14 114.37H454.51C456 114.37 457.37 113.52 458.03 112.18L461.29 105.56C461.95 104.22 463.32 103.37 464.81 103.37H496.5C497.97 103.37 499.31 104.19 499.98 105.5L503.46 112.25C504.13 113.55 505.48 114.37 506.95 114.37H518.33C521.29 114.37 523.18 111.21 521.79 108.59ZM481.24 94.02C481.24 84.9 473.84 77.51 464.72 77.51C473.84 77.51 481.24 70.11 481.24 61C481.24 70.11 488.63 77.51 497.74 77.51C488.63 77.51 481.24 84.9 481.24 94.02Z" fill="#1C1C1C"/>
<path d="M602.7 106.63V97.79C602.7 92.89 600.6 89.28 597.48 86.89C595.49 85.36 595.53 82.36 597.5 80.83C600.21 78.74 602.5 75.54 602.5 70.72V69.77C602.5 61.13 596.42 54.18 576.3 54.18H531.69C529.53 54.18 527.77 55.93 527.77 58.1V110.46C527.77 112.63 529.53 114.39 531.69 114.39H542.67C544.84 114.39 546.6 112.63 546.6 110.46V96.92C546.6 94.75 548.36 92.99 550.53 92.99H571.24C580.55 92.99 583.8 96.23 583.8 103.59V110.54C583.8 112.71 584.13 113.65 584.67 114.39H603.85V113.99C603.37 112.97 602.7 111.49 602.7 106.63ZM582.79 73.75C582.79 77.06 580.55 79.62 575.22 79.62H550.53C548.36 79.62 546.6 77.87 546.6 75.7V71.74C546.6 69.57 548.36 67.81 550.53 67.81H575.22C580.69 67.81 582.79 70.51 582.79 73.69V73.75Z" fill="#1C1C1C"/>
<path d="M674.84 114.39H661.92C660.96 114.39 660.02 114.04 659.3 113.39L635.17 91.82C632.64 89.56 628.63 91.35 628.63 94.75V110.47C628.63 112.64 626.87 114.39 624.7 114.39H613.92C611.75 114.39 610 112.63 610 110.47V58.1C610 55.93 611.76 54.18 613.92 54.18H624.7C626.87 54.18 628.63 55.94 628.63 58.1V70.98C628.63 74.28 632.47 76.11 635.03 74.03L658.4 55.06C659.1 54.49 659.97 54.18 660.87 54.18H672.16C675.88 54.18 677.51 58.87 674.6 61.18L652.39 78.77C650.66 80.14 650.42 82.63 651.75 84.29C651.88 84.46 652.03 84.62 652.19 84.77L677.47 107.56C680.14 109.97 678.44 114.4 674.84 114.4V114.39Z" fill="#1C1C1C"/>
<path d="M336.32 76.56C330.63 76.46 324.91 76.53 319.29 75.79C317.8 75.59 316.27 75.32 315 74.51C313.73 73.7 312.78 72.22 313.02 70.74C313.39 68.45 316.09 67.45 318.37 67.06C324.51 66 330.81 66.07 336.99 66.9C339.57 67.25 342.29 67.8 344.16 69.59C345.33 70.71 346.15 72.29 347.64 72.93C348.49 73.3 349.44 73.3 350.36 73.3C353.55 73.3 356.75 73.3 359.94 73.3C360.8 73.3 361.69 73.3 362.48 72.97C363.97 72.35 364.81 70.66 364.8 69.04C364.78 67.43 364.05 65.9 363.13 64.58C360.85 61.3 357.39 58.97 353.7 57.44C346.52 54.45 338.53 54.26 330.76 54.16C322.93 54.06 314.96 54.02 307.48 56.33C302.98 57.72 298.52 60.15 296.17 64.24C294.68 66.83 294.16 69.89 294.32 72.87C294.47 75.7 295.24 78.55 296.86 80.87C299 83.92 302.44 85.82 305.96 87.05C316.99 90.9 329.13 89.02 340.73 90.45C342.46 90.66 344.24 90.97 345.72 91.88C347.21 92.79 348.36 94.45 348.2 96.19C347.94 99 344.71 100.42 341.94 101.01C335.55 102.36 328.89 102.38 322.46 101.24C319.22 100.67 315.72 99.59 313.98 96.79C313.27 95.65 312.87 94.25 311.78 93.46C310.8 92.75 309.5 92.72 308.29 92.71C305.11 92.71 301.93 92.69 298.75 92.68C297.91 92.68 297.04 92.68 296.26 93C294.97 93.52 294.13 94.86 293.92 96.23C293.71 97.6 294.03 99.01 294.54 100.3C297.16 107 304.21 110.96 311.18 112.7C319.68 114.82 328.58 114.43 337.34 114.08C341.92 113.9 346.54 113.73 351.01 112.69C355.48 111.65 359.84 109.66 362.99 106.32C365.88 103.26 367.55 99.08 367.11 94.86C366.9 92.77 367.18 90.77 366.5 88.71C365.8 86.63 364.53 84.74 362.93 83.25C360.1 80.62 356.39 79.13 352.64 78.21C347.31 76.9 341.84 76.64 336.34 76.55L336.32 76.56Z" fill="#1C1C1C"/>
<path d="M727.39 76.56C721.7 76.46 715.98 76.53 710.36 75.79C708.87 75.59 707.34 75.32 706.07 74.51C704.8 73.7 703.85 72.22 704.09 70.74C704.45 68.45 707.16 67.45 709.44 67.06C715.58 66 721.88 66.07 728.06 66.9C730.64 67.25 733.36 67.8 735.23 69.59C736.4 70.71 737.22 72.29 738.71 72.93C739.56 73.3 740.51 73.3 741.43 73.3C744.62 73.3 747.82 73.3 751.01 73.3C751.87 73.3 752.76 73.3 753.55 72.97C755.04 72.35 755.88 70.66 755.87 69.04C755.85 67.43 755.12 65.9 754.2 64.58C751.92 61.3 748.46 58.97 744.77 57.44C737.59 54.45 729.6 54.26 721.83 54.16C714.01 54.06 706.03 54.02 698.55 56.33C694.05 57.72 689.59 60.15 687.24 64.24C685.75 66.83 685.23 69.89 685.39 72.87C685.54 75.7 686.31 78.55 687.93 80.87C690.07 83.92 693.51 85.82 697.03 87.05C708.06 90.9 720.2 89.02 731.8 90.45C733.53 90.66 735.31 90.97 736.79 91.88C738.28 92.79 739.43 94.45 739.27 96.19C739.01 99 735.78 100.42 733.01 101.01C726.62 102.36 719.96 102.38 713.53 101.24C710.29 100.67 706.79 99.59 705.05 96.79C704.34 95.65 703.94 94.25 702.85 93.46C701.87 92.75 700.57 92.72 699.36 92.71L689.82 92.68C688.98 92.68 688.11 92.68 687.33 93C686.04 93.52 685.21 94.86 684.99 96.23C684.77 97.6 685.1 99.01 685.61 100.3C688.23 107 695.28 110.96 702.25 112.7C710.75 114.82 719.65 114.43 728.41 114.08C732.99 113.9 737.61 113.73 742.08 112.69C746.55 111.65 750.91 109.66 754.06 106.32C756.95 103.26 758.61 99.08 758.18 94.86C757.97 92.77 758.25 90.77 757.57 88.71C756.87 86.63 755.6 84.74 754 83.25C751.17 80.62 747.46 79.13 743.71 78.21C738.38 76.9 732.91 76.64 727.41 76.55L727.39 76.56Z" fill="#1C1C1C"/>
</svg>
